FiraMonoMz-Regular.sfdir
StartChar: ampersand
Encoding: 38 38 1378
Width: 600
VWidth: 2048
GlyphClass: 2
Flags: W
LayerCount: 2
Fore
SplineSet
28.5 186.5 m 4,0,1
 28.5 220 28.5 220 38.5 248.5 c 132,-1,2
 48.5 277 48.5 277 66.5 301.75 c 132,-1,3
 84.5 326.5 84.5 326.5 109.5 348.75 c 132,-1,4
 134.5 371 134.5 371 165 392.5 c 5,5,6
 131.5 438 131.5 438 111.75 478.5 c 132,-1,7
 92 519 92 519 92 563 c 4,8,9
 92 605.5 92 605.5 104.75 638.25 c 132,-1,10
 117.5 671 117.5 671 141 693.25 c 132,-1,11
 164.5 715.5 164.5 715.5 197.5 727 c 132,-1,12
 230.5 738.5 230.5 738.5 271.5 738.5 c 4,13,14
 307 738.5 307 738.5 336 726 c 132,-1,15
 365 713.5 365 713.5 385.25 692.25 c 132,-1,16
 405.5 671 405.5 671 416.5 643 c 132,-1,17
 427.5 615 427.5 615 427.5 584 c 4,18,19
 427.5 557.5 427.5 557.5 419.75 535.75 c 132,-1,20
 412 514 412 514 398.25 495 c 132,-1,21
 384.5 476 384.5 476 365.5 459 c 132,-1,22
 346.5 442 346.5 442 324.5 425.5 c 6,23,-1
 277.5 385.5 l 5,24,-1
 431 184 l 5,25,26
 448.5 216 448.5 216 458.5 254 c 132,-1,27
 468.5 292 468.5 292 469 336 c 5,28,-1
 552.5 336 l 5,29,30
 552.5 272 552.5 272 534.25 217.25 c 132,-1,31
 516 162.5 516 162.5 481 118.5 c 5,32,-1
 571.5 0 l 5,33,-1
 461 0 l 5,34,-1
 419.5 55 l 5,35,36
 382.5 23.5 382.5 23.5 338 6.75 c 132,-1,37
 293.5 -10 293.5 -10 244.5 -10 c 4,38,39
 195 -10 195 -10 155 4.5 c 132,-1,40
 115 19 115 19 87 45 c 132,-1,41
 59 71 59 71 43.75 107.25 c 132,-1,42
 28.5 143.5 28.5 143.5 28.5 186.5 c 4,0,1
244.5 65 m 4,43,44
 280 65 280 65 313 78 c 132,-1,45
 346 91 346 91 374.5 115 c 5,46,-1
 213 330.5 l 5,47,-1
 199 318.5 l 6,48,49
 174 298 174 298 158.5 278.5 c 132,-1,50
 143 259 143 259 134.75 241.75 c 132,-1,51
 126.5 224.5 126.5 224.5 123.75 210.25 c 132,-1,52
 121 196 121 196 121 186.5 c 4,53,54
 121 161 121 161 129 139 c 132,-1,55
 137 117 137 117 152.5 100.5 c 132,-1,56
 168 84 168 84 191 74.5 c 132,-1,57
 214 65 214 65 244.5 65 c 4,43,44
185 564 m 4,58,59
 185 536 185 536 197.5 506.75 c 132,-1,60
 210 477.5 210 477.5 232.5 445 c 5,61,-1
 291 491.5 l 6,62,63
 306.5 502 306.5 502 316.5 513.5 c 132,-1,64
 326.5 525 326.5 525 332 536.75 c 132,-1,65
 337.5 548.5 337.5 548.5 339.75 560.5 c 132,-1,66
 342 572.5 342 572.5 342 584 c 4,67,68
 342 599 342 599 337.25 613.25 c 132,-1,69
 332.5 627.5 332.5 627.5 323.25 638.25 c 132,-1,70
 314 649 314 649 301 655.75 c 132,-1,71
 288 662.5 288 662.5 271.5 662.5 c 4,72,73
 250 662.5 250 662.5 233.75 654.5 c 132,-1,74
 217.5 646.5 217.5 646.5 206.75 633 c 132,-1,75
 196 619.5 196 619.5 190.5 601.75 c 132,-1,76
 185 584 185 584 185 564 c 4,58,59
EndSplineSet
EndChar
StartChar: plus
Encoding: 43 43 1104
Width: 600
GlyphClass: 2
Flags: W
LayerCount: 2
Fore
SplineSet
338 346 m 1,0,-1
 484 346 l 1,1,-1
 484 276 l 1,2,-1
 338 276 l 1,3,-1
 338 127 l 1,4,-1
 260 127 l 1,5,-1
 260 276 l 1,6,-1
 116 276 l 1,7,-1
 116 346 l 1,8,-1
 260 346 l 1,9,-1
 260 495 l 1,10,-1
 338 495 l 1,11,-1
 338 346 l 1,0,-1
EndSplineSet
Validated: 1
Substitution2: "'onum' Oldstyle Figures in Latin lookup 22 subtable" plus.tosf
Substitution2: "'dnom' Denominators in Latin lookup 15 subtable" plus.dnom
Substitution2: "'numr' Numerators in Latin lookup 14 subtable" plus.numr
Substitution2: "'sups' Superscript in Latin lookup 13 subtable" uni207A
Substitution2: "'subs' Subscript in Latin lookup 12 subtable" uni208A
AlternateSubs2: "'aalt' Access All Alternates in Latin lookup 1 subtable" uni208A uni207A plus.numr plus.dnom plus.tosf
EndChar
StartChar: slash
Encoding: 47 47 993
Width: 600
Flags: W
LayerCount: 2
Fore
SplineSet
53 -73 m 1,0,-1
 480 809 l 1,1,-1
 547 777 l 1,2,-1
 121 -103 l 1,3,-1
 53 -73 l 1,0,-1
EndSplineSet
Validated: 1
Substitution2: "'frac' Diagonal Fractions in Latin lookup 16 subtable" fraction
Substitution2: "'aalt' Access All Alternates in Latin lookup 0 subtable" fraction
EndChar
StartChar: one
Encoding: 49 49 899
Width: 600
Flags: W
LayerCount: 2
Fore
SplineSet
517 68 m 1,0,-1
 517 0 l 1,1,-1
 120 0 l 1,2,-1
 120 68 l 1,3,-1
 289 68 l 1,4,-1
 289 597 l 1,5,-1
 132 502 l 1,6,-1
 95 561 l 1,7,-1
 300 689 l 1,8,-1
 374 689 l 1,9,-1
 374 68 l 1,10,-1
 517 68 l 1,0,-1
EndSplineSet
Validated: 1
Substitution2: "'onum' Oldstyle Figures in Latin lookup 22 subtable" one.tosf
Substitution2: "'frac' Diagonal Fractions in Latin lookup 17 subtable" one.numr
Substitution2: "'dnom' Denominators in Latin lookup 15 subtable" one.dnom
Substitution2: "'numr' Numerators in Latin lookup 14 subtable" one.numr
Substitution2: "'sups' Superscript in Latin lookup 13 subtable" uni00B9
Substitution2: "'subs' Subscript in Latin lookup 12 subtable" uni2081
AlternateSubs2: "'aalt' Access All Alternates in Latin lookup 1 subtable" uni2081 uni00B9 one.numr one.dnom one.tosf
EndChar
StartChar: seven
Encoding: 55 55 905
Width: 600
Flags: W
LayerCount: 2
Fore
SplineSet
152 14 m 1,0,-1
 420 619 l 1,1,-1
 97 619 l 1,2,-1
 97 689 l 1,3,-1
 505 689 l 1,4,-1
 505 624 l 1,5,-1
 230 -9 l 1,6,-1
 152 14 l 1,0,-1
EndSplineSet
Validated: 1
Substitution2: "'onum' Oldstyle Figures in Latin lookup 22 subtable" seven.tosf
Substitution2: "'frac' Diagonal Fractions in Latin lookup 17 subtable" seven.numr
Substitution2: "'dnom' Denominators in Latin lookup 15 subtable" seven.dnom
Substitution2: "'numr' Numerators in Latin lookup 14 subtable" seven.numr
Substitution2: "'sups' Superscript in Latin lookup 13 subtable" uni2077
Substitution2: "'subs' Subscript in Latin lookup 12 subtable" uni2087
AlternateSubs2: "'aalt' Access All Alternates in Latin lookup 1 subtable" uni2087 uni2077 seven.numr seven.dnom seven.tosf
EndChar
StartChar: greater
Encoding: 62 62 1085
Width: 600
GlyphClass: 2
Flags: W
LayerCount: 2
Fore
SplineSet
513 356 m 1,0,-1
 513 270 l 1,1,-1
 133 33 l 1,2,-1
 88 95 l 1,3,-1
 441 313 l 1,4,-1
 88 530 l 1,5,-1
 129 594 l 1,6,-1
 513 356 l 1,0,-1
EndSplineSet
Validated: 1
Substitution2: "'onum' Oldstyle Figures in Latin lookup 22 subtable" greater.tosf
Substitution2: "'aalt' Access All Alternates in Latin lookup 0 subtable" greater.tosf
EndChar
StartChar: at
Encoding: 64 64 1377
Width: 600
GlyphClass: 2
Flags: W
LayerCount: 2
Fore
SplineSet
196.396484375 -40.2509765625 m 128,-1,1
 121.552734375 6.5126953125 121.552734375 6.5126953125 75.97265625 100.938476562 c 0,2,3
 53.251953125 148.00390625 53.251953125 148.00390625 41.92578125 205.465820312 c 128,-1,4
 30.599609375 262.926757812 30.599609375 262.926757812 30.599609375 330.75 c 0,5,6
 30.599609375 465.224609375 30.599609375 465.224609375 73.505859375 557.901367188 c 0,7,8
 116.60546875 650.998046875 116.60546875 650.998046875 184.71875 697.16015625 c 128,-1,9
 252.947265625 743.400390625 252.947265625 743.400390625 327.599609375 743.400390625 c 0,10,11
 391.1953125 743.400390625 391.1953125 743.400390625 446.673828125 710.01953125 c 128,-1,12
 502.3359375 676.530273438 502.3359375 676.530273438 535.953125 609.852539062 c 0,13,14
 569.400390625 543.517578125 569.400390625 543.517578125 569.400390625 450.450195312 c 2,15,-1
 569.400390625 156.870117188 l 1,16,-1
 569.400390625 152.669921875 l 1,17,-1
 569.400390625 147.419921875 l 1,18,-1
 564.400390625 147.419921875 l 1,19,-1
 560.400390625 147.419921875 l 1,20,-1
 488.400390625 147.419921875 l 1,21,-1
 484.400390625 147.419921875 l 1,22,-1
 479.400390625 147.419921875 l 1,23,-1
 479.400390625 152.669921875 l 1,24,-1
 479.400390625 156.870117188 l 1,25,-1
 479.400390625 181.251953125 l 1,26,27
 433.716796875 137.340820312 433.716796875 137.340820312 372 137.340820312 c 0,28,29
 299.90625 137.340820312 299.90625 137.340820312 251.677734375 187.314453125 c 128,-1,30
 203.400390625 237.33984375 203.400390625 237.33984375 203.400390625 313.110351562 c 0,31,32
 203.400390625 399.573242188 203.400390625 399.573242188 268.00390625 453.44140625 c 0,33,34
 331.662109375 506.520507812 331.662109375 506.520507812 448.80078125 506.520507812 c 0,35,36
 464.513671875 506.520507812 464.513671875 506.520507812 475.556640625 505.966796875 c 1,37,38
 472.271484375 569.03125 472.271484375 569.03125 434.46875 610.8984375 c 0,39,40
 393.330078125 656.459960938 393.330078125 656.459960938 324 656.459960938 c 0,41,42
 267.98046875 656.459960938 267.98046875 656.459960938 221.076171875 622.826171875 c 128,-1,43
 174.078125 589.125976562 174.078125 589.125976562 146.3046875 519.259765625 c 0,44,45
 118.19921875 448.556640625 118.19921875 448.556640625 118.19921875 344.610351562 c 0,46,47
 118.19921875 232.100585938 118.19921875 232.100585938 153.3125 155.2890625 c 0,48,49
 188.205078125 78.9638671875 188.205078125 78.9638671875 244.24609375 41.3525390625 c 128,-1,50
 300.23046875 3.7802734375 300.23046875 3.7802734375 363.599609375 3.7802734375 c 0,51,52
 430.451171875 3.7802734375 430.451171875 3.7802734375 486.97265625 43.748046875 c 2,53,-1
 490.599609375 46.3134765625 l 1,54,-1
 495.1328125 49.51953125 l 1,55,-1
 497.771484375 44.4931640625 l 1,56,-1
 499.8828125 40.470703125 l 1,57,-1
 532.283203125 -21.2685546875 l 1,58,-1
 534.1015625 -24.736328125 l 1,59,-1
 536.376953125 -29.0703125 l 1,60,-1
 532.390625 -31.7099609375 l 1,61,-1
 529.201171875 -33.822265625 l 2,62,63
 449.001953125 -86.939453125 449.001953125 -86.939453125 356.400390625 -86.939453125 c 0,64,0
 271.125 -86.939453125 271.125 -86.939453125 196.396484375 -40.2509765625 c 128,-1,1
455.833984375 269.627929688 m 0,65,66
 478.369140625 314.64453125 478.369140625 314.64453125 479.36328125 424.09375 c 1,67,68
 457.1328125 425.880859375 457.1328125 425.880859375 447.599609375 425.880859375 c 0,69,70
 372.470703125 425.880859375 372.470703125 425.880859375 333.41015625 396.755859375 c 0,71,72
 295.80078125 368.7109375 295.80078125 368.7109375 295.80078125 318.150390625 c 0,73,74
 295.80078125 274.052734375 295.80078125 274.052734375 317.9140625 249.702148438 c 128,-1,75
 339.853515625 225.541015625 339.853515625 225.541015625 382.80078125 225.541015625 c 0,76,77
 433.763671875 225.541015625 433.763671875 225.541015625 455.833984375 269.627929688 c 0,65,66
EndSplineSet
EndChar
StartChar: N
Encoding: 78 78 68
Width: 600
GlyphClass: 2
Flags: W
AnchorPoint: "Anchor-5" 299 689 basechar 0
AnchorPoint: "Anchor-4" 300 0 basechar 0
LayerCount: 2
Fore
SplineSet
152 605 m 2,0,1
 152 598 152 598 158 518 c 128,-1,2
 164 438 164 438 164 345 c 2,3,-1
 164 0 l 1,4,-1
 83 0 l 1,5,-1
 83 689 l 1,6,-1
 201 689 l 1,7,-1
 448 81 l 1,8,-1
 446 117 l 2,9,10
 436 240 436 240 436 344 c 2,11,-1
 436 689 l 1,12,-1
 517 689 l 1,13,-1
 517 0 l 1,14,-1
 395 0 l 1,15,-1
 152 605 l 2,0,1
EndSplineSet
Validated: 1
EndChar
StartChar: T
Encoding: 84 84 99
Width: 600
GlyphClass: 2
Flags: W
AnchorPoint: "Anchor-5" 299 689 basechar 0
AnchorPoint: "Anchor-4" 299 0 basechar 0
LayerCount: 2
Fore
SplineSet
342 0 m 1,0,-1
 255 0 l 1,1,-1
 255 614 l 1,2,-1
 40 614 l 1,3,-1
 40 689 l 1,4,-1
 559 689 l 1,5,-1
 550 614 l 1,6,-1
 342 614 l 1,7,-1
 342 0 l 1,0,-1
EndSplineSet
Validated: 1
EndChar
StartChar: Y
Encoding: 89 89 122
Width: 600
GlyphClass: 2
Flags: W
AnchorPoint: "Anchor-5" 303 689 basechar 0
AnchorPoint: "Anchor-4" 300 0 basechar 0
LayerCount: 2
Fore
SplineSet
344 0 m 1,0,-1
 256 0 l 1,1,-1
 256 265 l 1,2,-1
 23 689 l 1,3,-1
 119 689 l 1,4,-1
 302 343 l 1,5,-1
 487 689 l 1,6,-1
 577 689 l 1,7,-1
 344 266 l 1,8,-1
 344 0 l 1,0,-1
EndSplineSet
Validated: 1
EndChar
StartChar: g
Encoding: 103 103 170
Width: 600
GlyphClass: 2
Flags: W
AnchorPoint: "Anchor-5" 293 527 basechar 0
AnchorPoint: "Anchor-4" 0 0 basechar 0
LayerCount: 2
Fore
SplineSet
554 503 m 1,0,1
 524 493 524 493 489 490.5 c 128,-1,2
 454 488 454 488 400 488 c 1,3,4
 492 446 492 446 492 355 c 0,5,6
 492 275 492 275 439 225.5 c 128,-1,7
 386 176 386 176 294 176 c 0,8,9
 247 176 247 176 215 187 c 1,10,11
 203 178 203 178 195.5 164 c 128,-1,12
 188 150 188 150 188 136 c 0,13,14
 188 91 188 91 258 91 c 2,15,-1
 353 91 l 2,16,17
 405 91 405 91 447.5 72.5 c 128,-1,18
 490 54 490 54 514.5 21 c 128,-1,19
 539 -12 539 -12 539 -52 c 0,20,21
 539 -129 539 -129 473.5 -170.5 c 128,-1,22
 408 -212 408 -212 288 -212 c 0,23,24
 166 -212 166 -212 116 -174 c 128,-1,25
 66 -136 66 -136 66 -53 c 1,26,-1
 66.5476190476 -7 l 0,27,-1
 143 46.5 l 0,28,-1
 142 0 l 0,29,30
 142 -26 142 -26 142 -53 c 0,31,32
 142 -86 142 -86 154.5 -105.5 c 128,-1,33
 167 -125 167 -125 198.5 -134.5 c 128,-1,34
 230 -144 230 -144 288 -144 c 0,35,36
 373 -144 373 -144 413.5 -122 c 128,-1,37
 454 -100 454 -100 454 -57 c 0,38,39
 454 -21 454 -21 421 -1.5 c 128,-1,40
 388 18 388 18 336 18 c 2,41,-1
 242 18 l 2,42,43
 177 18 177 18 143 46.5 c 128,-1,44
 109 75 109 75 109 118 c 0,45,46
 109 143 109 143 124 167.5 c 128,-1,47
 139 192 139 192 167 210 c 1,48,49
 122 233 122 233 100.5 268.5 c 128,-1,50
 79 304 79 304 79 355 c 0,51,52
 79 408 79 408 105.5 449.5 c 128,-1,53
 132 491 132 491 179.5 514.5 c 128,-1,54
 227 538 227 538 289 538 c 0,55,56
 379 538 379 538 426 548 c 128,-1,57
 473 558 473 558 529 582 c 1,58,-1
 554 503 l 1,0,1
196 443.5 m 128,-1,60
 165 411 165 411 165 355 c 256,61,62
 165 299 165 299 196.5 265.5 c 128,-1,63
 228 232 228 232 290 232 c 0,64,65
 346 232 346 232 375.5 264.5 c 128,-1,66
 405 297 405 297 405 356 c 0,67,68
 405 476 405 476 288 476 c 0,69,59
 227 476 227 476 196 443.5 c 128,-1,60
EndSplineSet
EndChar
StartChar: gravecomb
Encoding: 768 768 1417
Width: 0
GlyphClass: 4
Flags: W
AnchorPoint: "Anchor-8" -300 527 mark 0
AnchorPoint: "Anchor-6" -300 527 mark 0
AnchorPoint: "Anchor-5" -300 527 mark 0
AnchorPoint: "Anchor-3" -300 527 mark 0
AnchorPoint: "Anchor-1" -300 527 mark 0
LayerCount: 2
Fore
SplineSet
-184 685 m 1,0,-1
 -210 640 l 1,1,-1
 -419 725 l 1,2,-1
 -380 797 l 1,3,-1
 -184 685 l 1,0,-1
EndSplineSet
Validated: 1
EndChar
StartChar: uni030C
Encoding: 780 780 1408
Width: 0
GlyphClass: 4
Flags: W
AnchorPoint: "Anchor-8" -300 527 mark 0
AnchorPoint: "Anchor-6" -300 527 mark 0
AnchorPoint: "Anchor-5" -300 527 mark 0
AnchorPoint: "Anchor-3" -300 527 mark 0
AnchorPoint: "Anchor-1" -300 527 mark 0
LayerCount: 2
Fore
SplineSet
-137 689 m 1,0,-1
 -271 581 l 1,1,-1
 -328 581 l 1,2,-1
 -463 689 l 1,3,-1
 -425 731 l 1,4,-1
 -300 651 l 1,5,-1
 -174 731 l 1,6,-1
 -137 689 l 1,0,-1
EndSplineSet
Validated: 1
EndChar
StartChar: uni030F
Encoding: 783 783 1414
Width: 0
GlyphClass: 4
Flags: W
AnchorPoint: "Anchor-8" -251 527 mark 0
AnchorPoint: "Anchor-6" -295 832 basemark 0
AnchorPoint: "Anchor-6" -251 527 mark 0
AnchorPoint: "Anchor-5" -251 527 mark 0
AnchorPoint: "Anchor-3" -251 527 mark 0
AnchorPoint: "Anchor-1" -251 527 mark 0
LayerCount: 2
Fore
SplineSet
-355 634 m 1,0,-1
 -463 797 l 1,1,-1
 -389 836 l 1,2,-1
 -302 662 l 1,3,-1
 -355 634 l 1,0,-1
-193 636 m 1,4,-1
 -290 800 l 1,5,-1
 -215 836 l 1,6,-1
 -137 662 l 1,7,-1
 -193 636 l 1,4,-1
EndSplineSet
Validated: 1
EndChar
StartChar: uni0326
Encoding: 806 806 1412
Width: 0
GlyphClass: 4
Flags: W
AnchorPoint: "Anchor-7" -300 0 mark 0
AnchorPoint: "Anchor-4" -300 0 mark 0
AnchorPoint: "Anchor-2" -300 0 mark 0
AnchorPoint: "Anchor-0" -300 0 mark 0
LayerCount: 2
Fore
SplineSet
-258 -86.5 m 128,-1,1
 -242 -102 -242 -102 -242 -124 c 0,2,3
 -242 -145 -242 -145 -257 -179 c 2,4,-1
 -308 -286 l 1,5,-1
 -358 -286 l 1,6,-1
 -329 -169 l 1,7,8
 -351 -152 -351 -152 -351 -124 c 0,9,10
 -351 -101 -351 -101 -335.5 -86 c 128,-1,11
 -320 -71 -320 -71 -297 -71 c 256,12,0
 -274 -71 -274 -71 -258 -86.5 c 128,-1,1
EndSplineSet
Validated: 1
Substitution2: "'case' Case-Sensitive Forms in Latin lookup 23 subtable" uni0326.case
Substitution2: "'aalt' Access All Alternates in Latin lookup 0 subtable" uni0326.case
EndChar
StartChar: tonos
Encoding: 900 900 1458
Width: 600
Flags: W
LayerCount: 2
Fore
SplineSet
363 791 m 1,0,-1
 298 596 l 1,1,-1
 238 606 l 1,2,-1
 274 808 l 1,3,-1
 363 791 l 1,0,-1
EndSplineSet
Validated: 1
Substitution2: "'case' Case-Sensitive Forms in Latin lookup 23 subtable" tonos.case
Substitution2: "'aalt' Access All Alternates in Latin lookup 0 subtable" tonos.case
EndChar
StartChar: uni0394
Encoding: 916 916 570
Width: 600
GlyphClass: 2
Flags: W
AnchorPoint: "Anchor-3" 300 689 basechar 0
AnchorPoint: "Anchor-2" 300 0 basechar 0
LayerCount: 2
Fore
SplineSet
579 0 m 1,0,-1
 20 0 l 1,1,-1
 245 689 l 1,2,-1
 355 689 l 1,3,-1
 579 0 l 1,0,-1
129 71 m 1,4,-1
 466 71 l 1,5,-1
 298 613 l 1,6,-1
 129 71 l 1,4,-1
EndSplineSet
Validated: 1
EndChar
StartChar: Iota
Encoding: 921 921 575
Width: 600
GlyphClass: 2
Flags: W
AnchorPoint: "Anchor-3" 300 689 basechar 0
AnchorPoint: "Anchor-2" 300 0 basechar 0
LayerCount: 2
Fore
SplineSet
497 619 m 1,0,-1
 344 619 l 1,1,-1
 344 69 l 1,2,-1
 497 69 l 1,3,-1
 497 0 l 1,4,-1
 103 0 l 1,5,-1
 103 69 l 1,6,-1
 256 69 l 1,7,-1
 256 619 l 1,8,-1
 103 619 l 1,9,-1
 103 689 l 1,10,-1
 497 689 l 1,11,-1
 497 619 l 1,0,-1
EndSplineSet
Validated: 1
Substitution2: "Single Substitution lookup 29 subtable" Iotadieresis
Substitution2: "'aalt' Access All Alternates in Latin lookup 0 subtable" Iotadieresis
EndChar
StartChar: Xi
Encoding: 926 926 580
Width: 600
GlyphClass: 2
Flags: W
AnchorPoint: "Anchor-3" 300 689 basechar 0
AnchorPoint: "Anchor-2" 300 0 basechar 0
LayerCount: 2
Fore
SplineSet
501 609 m 1,0,-1
 77 609 l 1,1,-1
 77 689 l 1,2,-1
 513 689 l 1,3,-1
 501 609 l 1,0,-1
464 309 m 1,4,-1
 127 309 l 1,5,-1
 127 389 l 1,6,-1
 464 389 l 1,7,-1
 464 309 l 1,4,-1
523 0 m 1,8,-1
 77 0 l 1,9,-1
 77 81 l 1,10,-1
 523 81 l 1,11,-1
 523 0 l 1,8,-1
EndSplineSet
Validated: 1
EndChar
StartChar: uni0413
Encoding: 1043 1043 285
Width: 600
GlyphClass: 2
Flags: W
AnchorPoint: "Anchor-1" 349 689 basechar 0
AnchorPoint: "Anchor-0" 180 0 basechar 0
LayerCount: 2
Fore
SplineSet
535 612 m 1,0,-1
 223 612 l 1,1,-1
 223 0 l 1,2,-1
 136 0 l 1,3,-1
 136 689 l 1,4,-1
 544 689 l 1,5,-1
 535 612 l 1,0,-1
EndSplineSet
Validated: 1
EndChar
StartChar: uni041F
Encoding: 1055 1055 304
Width: 600
GlyphClass: 2
Flags: W
AnchorPoint: "Anchor-1" 300 689 basechar 0
AnchorPoint: "Anchor-0" 300 0 basechar 0
LayerCount: 2
Fore
SplineSet
430 613 m 1,0,-1
 170 613 l 1,1,-1
 170 0 l 1,2,-1
 83 0 l 1,3,-1
 83 689 l 1,4,-1
 517 689 l 1,5,-1
 517 0 l 1,6,-1
 430 0 l 1,7,-1
 430 613 l 1,0,-1
EndSplineSet
Validated: 1
EndChar
StartChar: uni0428
Encoding: 1064 1064 314
Width: 600
GlyphClass: 2
Flags: W
AnchorPoint: "Anchor-1" 300 689 basechar 0
AnchorPoint: "Anchor-0" 300 0 basechar 0
LayerCount: 2
Fore
SplineSet
554 0 m 1,0,-1
 46 0 l 1,1,-1
 46 689 l 1,2,-1
 128 689 l 1,3,-1
 128 73 l 1,4,-1
 261 73 l 1,5,-1
 261 689 l 1,6,-1
 339 689 l 1,7,-1
 339 73 l 1,8,-1
 472 73 l 1,9,-1
 472 689 l 1,10,-1
 554 689 l 1,11,-1
 554 0 l 1,0,-1
EndSplineSet
Validated: 1
EndChar
StartChar: uni0438
Encoding: 1080 1080 431
Width: 600
GlyphClass: 2
Flags: W
AnchorPoint: "Anchor-1" 300 527 basechar 0
AnchorPoint: "Anchor-0" 300 0 basechar 0
LayerCount: 2
Fore
SplineSet
500 0 m 1,0,-1
 416 0 l 1,1,-1
 416 246 l 2,2,3
 416 320 416 320 420.5 371 c 128,-1,4
 425 422 425 422 425 427 c 2,5,-1
 203 0 l 1,6,-1
 100 0 l 1,7,-1
 100 527 l 1,8,-1
 184 527 l 1,9,-1
 184 280 l 2,10,11
 184 217 184 217 180 162.5 c 128,-1,12
 176 108 176 108 176 103 c 2,13,-1
 395 527 l 1,14,-1
 500 527 l 1,15,-1
 500 0 l 1,0,-1
EndSplineSet
Validated: 1
EndChar
StartChar: uni043F
Encoding: 1087 1087 441
Width: 600
GlyphClass: 2
Flags: W
AnchorPoint: "Anchor-1" 300 527 basechar 0
AnchorPoint: "Anchor-0" 300 0 basechar 0
LayerCount: 2
Fore
SplineSet
416 458 m 1,0,-1
 184 458 l 1,1,-1
 184 0 l 1,2,-1
 100 0 l 1,3,-1
 100 527 l 1,4,-1
 500 527 l 1,5,-1
 500 0 l 1,6,-1
 416 0 l 1,7,-1
 416 458 l 1,0,-1
EndSplineSet
Validated: 1
EndChar
StartChar: uni1FEF
Encoding: 8175 8175 1473
Width: 600
Flags: W
AnchorPoint: "Anchor-8" 304 797 basemark 0
LayerCount: 2
Fore
SplineSet
416 685 m 1,0,-1
 390 640 l 1,1,-1
 181 725 l 1,2,-1
 220 797 l 1,3,-1
 416 685 l 1,0,-1
EndSplineSet
Validated: 1
Substitution2: "'case' Case-Sensitive Forms in Latin lookup 23 subtable" uni1FEF.case
Substitution2: "'aalt' Access All Alternates in Latin lookup 0 subtable" uni1FEF.case
EndChar
StartChar: uni1FFD
Encoding: 8189 8189 1474
Width: 600
Flags: W
AnchorPoint: "Anchor-8" 290 797 basemark 0
LayerCount: 2
Fore
SplineSet
422 725 m 1,0,-1
 213 640 l 1,1,-1
 187 685 l 1,2,-1
 384 797 l 1,3,-1
 422 725 l 1,0,-1
EndSplineSet
Validated: 1
Substitution2: "'case' Case-Sensitive Forms in Latin lookup 23 subtable" uni1FFD.case
Substitution2: "'aalt' Access All Alternates in Latin lookup 0 subtable" uni1FFD.case
EndChar
StartChar: figuredash
Encoding: 8210 8210 1023
Width: 600
Flags: W
LayerCount: 2
Fore
SplineSet
35 349 m 1,0,-1
 565 349 l 1,1,-1
 565 276 l 1,2,-1
 35 276 l 1,3,-1
 35 349 l 1,0,-1
EndSplineSet
Validated: 1
Substitution2: "'onum' Oldstyle Figures in Latin lookup 22 subtable" figuredash.tosf
Substitution2: "'aalt' Access All Alternates in Latin lookup 0 subtable" figuredash.tosf
EndChar
StartChar: triagdn
Encoding: 9660 9660 1279
Width: 600
GlyphClass: 2
Flags: W
LayerCount: 2
Fore
SplineSet
300 0 m 1,0,-1
 30 540 l 1,1,-1
 570 540 l 1,2,-1
 300 0 l 1,0,-1
EndSplineSet
Validated: 1
EndChar
StartChar: uni25E2
Encoding: 9698 9698 1283
Width: 600
GlyphClass: 2
Flags: W
LayerCount: 2
Fore
SplineSet
570 0 m 1,0,-1
 30 0 l 1,1,-1
 570 540 l 1,2,-1
 570 0 l 1,0,-1
EndSplineSet
Validated: 1
EndChar
